# File created by Blade
# Date/Time:  Tue Apr 07 20:53:11 2015
# Frame Rate: 120.000 fps
#------------------------------------------------------
:FULLY-SPECIFIED
:DEGREES
505
root -23.756614 32.655509 5.584116 -13.568480 -81.476432 19.384592
Spine -14.052885 -8.123096 -4.075668
Head 21.876281 -4.438533 2.364121
LeftShoulder -16.482122 18.943531 45.811741
LeftArm 117.064004 -62.771433 -68.991305
LeftForeArm 28.546070 -0.000000 20.280044
LeftHand 20.255225 -0.000000 37.693278
LeftHandThumb1 -26.253704 0.000000 33.147579
RightShoulder -20.619651 34.989576 -61.088241
RightArm 59.744055 21.451646 37.223024
RightForeArm -21.081303 -0.000000 16.269151
RightHand 28.124879 -0.000000 -49.470045
RightHandThumb1 -24.326973 -0.000000 -32.862282
LeftUpLeg 3.723194 -4.134897 -7.949578
LeftLeg -1.245088 -0.000000 0.000000
LeftFoot -12.692623 16.023268 -12.623010
LeftToeBase -10.891053 -0.000000 0.000000
RightUpLeg -18.074494 -8.569408 4.559691
RightLeg -7.650614 -0.000000 0.000000
RightFoot 19.957573 -10.447746 2.062236
RightToeBase 2.921811 -0.000000 -0.000000
506
root -23.719353 32.659620 5.596950 -13.972218 -81.407487 19.754577
Spine -14.116114 -8.141877 -4.122596
Head 21.661991 -4.390826 2.324930
LeftShoulder -16.542874 18.988478 45.740763
LeftArm 117.166991 -62.751871 -69.068970
LeftForeArm 28.630086 -0.000000 20.236376
LeftHand 20.322688 -0.000000 37.633468
LeftHandThumb1 -26.253704 0.000000 33.147579
RightShoulder -20.666899 35.126947 -61.222963
RightArm 59.705761 21.240121 37.266209
RightForeArm -21.194236 -0.000000 16.255499
RightHand 27.250798 0.000000 -49.947313
RightHandThumb1 -24.326973 -0.000000 -32.862282
LeftUpLeg 3.758400 -4.051438 -8.040500
LeftLeg -1.419741 -0.000000 0.000000
LeftFoot -12.377625 15.965716 -12.510751
LeftToeBase -10.977821 -0.000000 0.000000
RightUpLeg -18.125892 -8.613412 4.435322
RightLeg -7.669090 -0.000000 0.000000
RightFoot 20.266713 -10.432173 2.077410
RightToeBase 2.828651 -0.000000 -0.000000
507
root -23.682948 32.664297 5.610398 -14.244238 -81.310829 19.982508
Spine -14.186115 -8.166975 -4.155891
Head 21.454737 -4.355226 2.266635
LeftShoulder -16.548628 19.002417 45.703799
LeftArm 117.157960 -62.736070 -69.109157
LeftForeArm 28.718720 -0.000000 20.272144
LeftHand 20.391007 -0.000000 37.620370
LeftHandThumb1 -26.253704 0.000000 33.147579
RightShoulder -20.684748 35.263759 -61.318180
RightArm 59.682036 21.134905 37.369931
RightForeArm -21.127455 -0.000000 16.299868
RightHand 27.374445 0.000000 -49.956248
RightHandThumb1 -24.326973 -0.000000 -32.862282
LeftUpLeg 3.796329 -3.952460 -8.118595
LeftLeg -1.578769 -0.000000 0.000000
LeftFoot -12.061517 15.870318 -12.357917
LeftToeBase -11.067592 -0.000000 0.000000
RightUpLeg -18.132993 -8.602677 4.287503
RightLeg -7.742937 -0.000000 0.000000
RightFoot 20.608898 -10.529861 2.130983
RightToeBase 2.748365 -0.000000 -0.000000
508
root -23.646038 32.669178 5.622011 -14.362302 -81.157002 20.044970
Spine -14.238268 -8.270243 -4.182349
Head 21.228276 -4.353914 2.188126
LeftShoulder -16.572696 19.053689 45.638848
LeftArm 117.205531 -62.756559 -69.193334
LeftForeArm 28.715902 0.000000 20.337843
LeftHand 20.452457 -0.000000 37.526842
LeftHandThumb1 -26.253704 0.000000 33.147579
RightShoulder -20.690838 35.346519 -61.365342
RightArm 59.763867 21.187444 37.640241
RightForeArm -20.875306 -0.000000 16.404105
RightHand 27.772236 -0.000000 -49.469485
RightHandThumb1 -24.326973 -0.000000 -32.862282
LeftUpLeg 3.827073 -3.843311 -8.177821
LeftLeg -1.694190 -0.000000 0.000000
LeftFoot -11.773380 15.678329 -12.258025
LeftToeBase -11.101339 -0.000000 0.000000
RightUpLeg -18.153279 -8.649479 4.151397
RightLeg -7.743778 -0.000000 0.000000
RightFoot 20.873867 -10.607830 2.134255
RightToeBase 2.518257 -0.000000 -0.000000
